Coordinates
nRows=184
nColumns=2
inDegrees=yes
endheader
time	ankle_angle_r	
2.74982	 -4.348755	
2.81232	 -4.425049	
2.87482	 -4.318237	
2.93731	 -4.394531	
2.99981	 -4.379272	
3.0623	 -4.409790	
3.1248	 -4.440308	
3.1873	 -4.364014	
3.24979	 -4.364014	
3.31229	 -4.409790	
3.37478	 -4.348755	
3.43728	 -4.348755	
3.49978	 -4.364014	
3.56227	 -4.241943	
3.62477	 -4.287720	
3.68726	 -4.257202	
3.74976	 -4.196167	
3.81226	 -4.241943	
3.87475	 -4.196167	
3.93725	 -4.211426	
3.99974	 -4.302979	
4.06224	 -4.257202	
4.12474	 -4.302979	
4.18723	 -4.287720	
4.24973	 -4.196167	
4.31222	 -4.257202	
4.37472	 -4.241943	
4.43722	 -4.287720	
4.49971	 -4.364014	
4.56221	 -4.302979	
4.6247	 -4.394531	
4.6872	 -4.470825	
4.7497	 -4.333496	
4.81219	 -4.440308	
4.87469	 -4.409790	
4.93718	 -4.302979	
4.99968	 -4.364014	
5.06218	 -4.272461	
5.12467	 -4.287720	
5.18717	 -4.287720	
5.24966	 -4.165649	
5.31216	 -4.226685	
5.37466	 -4.211426	
5.43715	 -4.196167	
5.49965	 -4.333496	
5.56214	 -4.241943	
5.62464	 -4.287720	
5.68714	 -4.333496	
5.74963	 -4.196167	
5.81213	 -4.257202	
5.87462	 -4.272461	
5.93712	 -4.257202	
5.99962	 -4.409790	
6.06211	 -4.379272	
6.12461	 -4.455566	
6.1871	 -4.364014	
6.2496	 -4.302979	
6.3121	 -4.333496	
6.37459	 -4.379272	
6.43709	 -4.196167	
6.49958	 -4.348755	
6.56208	 -4.272461	
6.62458	 -4.257202	
6.68707	 -4.364014	
6.74957	 -4.165649	
6.81206	 -4.241943	
6.87456	 -4.241943	
6.93706	 -4.165649	
6.99955	 -4.302979	
7.06205	 -4.287720	
7.12454	 -4.272461	
7.18704	 -4.302979	
7.24954	 -4.180908	
7.31203	 -4.302979	
7.37453	 -4.302979	
7.43702	 -4.241943	
7.49952	 -4.364014	
7.56202	 -4.379272	
7.62451	 -4.364014	
7.68701	 -4.425049	
7.7495	 -4.318237	
7.812	 -4.302979	
7.8745	 -4.348755	
7.93699	 -4.226685	
7.99949	 -4.318237	
8.06198	 -4.333496	
8.12448	 -4.257202	
8.18698	 -4.272461	
8.24947	 -4.180908	
8.31197	 -4.241943	
8.37446	 -4.241943	
8.43696	 -4.226685	
8.49946	 -4.302979	
8.56195	 -4.287720	
8.62445	 -4.241943	
8.68694	 -4.287720	
8.74944	 -4.241943	
8.81194	 -4.241943	
8.87443	 -4.302979	
8.93693	 -4.257202	
8.99942	 -4.394531	
9.06192	 -4.379272	
9.12442	 -4.364014	
9.18691	 -4.455566	
9.24941	 -4.364014	
9.3119	 -4.318237	
9.3744	 -4.409790	
9.4369	 -4.348755	
9.49939	 -4.394531	
9.56189	 -4.440308	
9.62438	 -4.394531	
9.68688	 -4.470825	
9.74938	 -4.440308	
9.81187	 -4.364014	
9.87437	 -4.394531	
9.93686	 -4.348755	
9.99936	 -4.394531	
10.0619	 -4.394531	
10.1244	 -4.257202	
10.1868	 -4.287720	
10.2493	 -4.302979	
10.3118	 -4.196167	
10.3743	 -4.257202	
10.4368	 -4.211426	
10.4993	 -4.226685	
10.5618	 -4.302979	
10.6243	 -4.241943	
10.6868	 -4.257202	
10.7493	 -4.287720	
10.8118	 -4.196167	
10.8743	 -4.257202	
10.9368	 -4.196167	
10.9993	 -4.211426	
11.0618	 -4.379272	
11.1243	 -4.272461	
11.1868	 -4.379272	
11.2493	 -4.409790	
11.3118	 -4.318237	
11.3743	 -4.348755	
11.4368	 -4.272461	
11.4993	 -4.348755	
11.5618	 -4.394531	
11.6243	 -4.302979	
11.6868	 -4.302979	
11.7492	 -4.302979	
11.8117	 -4.165649	
11.8742	 -4.287720	
11.9367	 -4.211426	
11.9992	 -4.196167	
12.0617	 -4.348755	
12.1242	 -4.302979	
12.1867	 -4.333496	
12.2492	 -4.318237	
12.3117	 -4.211426	
12.3742	 -4.241943	
12.4367	 -4.226685	
12.4992	 -4.196167	
12.5617	 -4.333496	
12.6242	 -4.287720	
12.6867	 -4.394531	
12.7492	 -4.501343	
12.8117	 -4.348755	
12.8742	 -4.379272	
12.9367	 -4.333496	
12.9992	 -4.302979	
13.0617	 -4.486084	
13.1242	 -4.425049	
13.1867	 -4.409790	
13.2492	 -4.425049	
13.3116	 -4.272461	
13.3741	 -4.348755	
13.4366	 -4.333496	
13.4991	 -4.364014	
13.5616	 -4.486084	
13.6241	 -4.425049	
13.6866	 -4.440308	
13.7491	 -4.470825	
13.8116	 -4.211426	
13.8741	 -4.287720	
13.9366	 -4.211426	
13.9991	 -4.180908	
14.0616	 -4.379272	
14.1241	 -4.257202	
14.1866	 -4.302979	
